<svg width="250" height="50" viewBox="0 0 250 50" fill="none" xmlns="http://www.w3.org/2000/svg">
<g filter="url(#filter0_d_42078_437)">
<path opacity="0.5" d="M44.0652 2.25671L34.2601 36.9917C34.2102 37.1494 34.0108 37.1967 33.8945 37.0863L27.3301 30.8583L32.2492 13.4514C32.2991 13.2937 32.1495 13.1518 31.9833 13.1991L13.6362 17.8662L7.10498 11.6697C6.98865 11.5593 7.03851 11.3701 7.20469 11.3228L43.7993 2.00444C43.9655 1.97291 44.115 2.11481 44.0652 2.25671Z" fill="#00B37E"/>
<path opacity="0.5" d="M27.3297 30.858L24.8037 39.8452C24.7538 40.0029 24.5544 40.0502 24.4381 39.9398L4.0634 20.6251C3.94707 20.5147 3.99692 20.3255 4.16311 20.2782L13.6358 17.8658L27.3297 30.858Z" fill="#00B37E"/>
<path d="M32.2484 13.4511L27.3292 30.858L13.6353 17.8659L31.9825 13.1988C32.1487 13.1515 32.2982 13.2934 32.2484 13.4511Z" fill="#00B37E"/>
<path d="M68.8107 21.5171H64.1384L64.1134 18.9436H68.0362C68.7274 18.9436 69.2938 18.8561 69.7352 18.6812C70.1766 18.498 70.5056 18.2356 70.7221 17.8942C70.947 17.5444 71.0594 17.1196 71.0594 16.6199C71.0594 16.0535 70.9512 15.5955 70.7346 15.2457C70.5264 14.8959 70.1974 14.6419 69.7477 14.4836C69.3063 14.3254 68.7358 14.2462 68.0362 14.2462H65.4377V29.5H61.6898V11.3104H68.0362C69.0939 11.3104 70.0392 11.4104 70.8721 11.6103C71.7132 11.8101 72.4253 12.1141 73.0083 12.5222C73.5913 12.9303 74.0369 13.4467 74.3451 14.0713C74.6532 14.6877 74.8073 15.4206 74.8073 16.2701C74.8073 17.0197 74.6366 17.7109 74.2951 18.3439C73.9619 18.9769 73.4331 19.4932 72.7085 19.893C71.9922 20.2928 71.0553 20.5135 69.8976 20.5551L68.8107 21.5171ZM68.6483 29.5H63.114L64.5757 26.5767H68.6483C69.3063 26.5767 69.8435 26.4726 70.2599 26.2644C70.6763 26.0478 70.9845 25.7563 71.1844 25.3899C71.3843 25.0234 71.4842 24.6028 71.4842 24.1281C71.4842 23.5951 71.3926 23.1328 71.2094 22.7414C71.0345 22.3499 70.7513 22.0501 70.3598 21.8419C69.9684 21.6253 69.452 21.5171 68.8107 21.5171H65.2003L65.2253 18.9436H69.7227L70.5847 19.9555C71.6924 19.9388 72.5836 20.1345 73.2582 20.5426C73.9411 20.9424 74.4367 21.4629 74.7448 22.1042C75.0613 22.7455 75.2196 23.4326 75.2196 24.1656C75.2196 25.3316 74.9655 26.3143 74.4575 27.1139C73.9495 27.9051 73.204 28.5006 72.2213 28.9003C71.2468 29.3001 70.0559 29.5 68.6483 29.5ZM77.2309 22.8788V22.6164C77.2309 21.6253 77.3725 20.7134 77.6557 19.8805C77.9388 19.0393 78.3511 18.3106 78.8925 17.6943C79.4338 17.078 80.1001 16.5991 80.8913 16.2576C81.6825 15.9078 82.5903 15.7329 83.6147 15.7329C84.6392 15.7329 85.5511 15.9078 86.3507 16.2576C87.1502 16.5991 87.8207 17.078 88.362 17.6943C88.9117 18.3106 89.3281 19.0393 89.6113 19.8805C89.8945 20.7134 90.0361 21.6253 90.0361 22.6164V22.8788C90.0361 23.8616 89.8945 24.7735 89.6113 25.6147C89.3281 26.4476 88.9117 27.1763 88.362 27.801C87.8207 28.4173 87.1544 28.8962 86.3632 29.2377C85.572 29.5791 84.6641 29.7499 83.6397 29.7499C82.6153 29.7499 81.7033 29.5791 80.9038 29.2377C80.1126 28.8962 79.4421 28.4173 78.8925 27.801C78.3511 27.1763 77.9388 26.4476 77.6557 25.6147C77.3725 24.7735 77.2309 23.8616 77.2309 22.8788ZM80.8288 22.6164V22.8788C80.8288 23.4451 80.8788 23.974 80.9788 24.4654C81.0787 24.9568 81.2369 25.3899 81.4535 25.7646C81.6784 26.1311 81.9699 26.4184 82.328 26.6266C82.6861 26.8349 83.1234 26.939 83.6397 26.939C84.1394 26.939 84.5684 26.8349 84.9265 26.6266C85.2846 26.4184 85.572 26.1311 85.7885 25.7646C86.005 25.3899 86.1633 24.9568 86.2632 24.4654C86.3715 23.974 86.4256 23.4451 86.4256 22.8788V22.6164C86.4256 22.0668 86.3715 21.5504 86.2632 21.0673C86.1633 20.576 86.0009 20.1429 85.776 19.7681C85.5595 19.385 85.2721 19.0851 84.914 18.8686C84.5559 18.6521 84.1228 18.5438 83.6147 18.5438C83.1067 18.5438 82.6736 18.6521 82.3155 18.8686C81.9657 19.0851 81.6784 19.385 81.4535 19.7681C81.2369 20.1429 81.0787 20.576 80.9788 21.0673C80.8788 21.5504 80.8288 22.0668 80.8288 22.6164ZM91.6726 22.8788V22.6164C91.6726 21.6253 91.8142 20.7134 92.0974 19.8805C92.3805 19.0393 92.7928 18.3106 93.3342 17.6943C93.8755 17.078 94.5418 16.5991 95.333 16.2576C96.1242 15.9078 97.032 15.7329 98.0565 15.7329C99.0809 15.7329 99.9928 15.9078 100.792 16.2576C101.592 16.5991 102.262 17.078 102.804 17.6943C103.353 18.3106 103.77 19.0393 104.053 19.8805C104.336 20.7134 104.478 21.6253 104.478 22.6164V22.8788C104.478 23.8616 104.336 24.7735 104.053 25.6147C103.77 26.4476 103.353 27.1763 102.804 27.801C102.262 28.4173 101.596 28.8962 100.805 29.2377C100.014 29.5791 99.1059 29.7499 98.0814 29.7499C97.057 29.7499 96.1451 29.5791 95.3455 29.2377C94.5543 28.8962 93.8839 28.4173 93.3342 27.801C92.7928 27.1763 92.3805 26.4476 92.0974 25.6147C91.8142 24.7735 91.6726 23.8616 91.6726 22.8788ZM95.2706 22.6164V22.8788C95.2706 23.4451 95.3205 23.974 95.4205 24.4654C95.5204 24.9568 95.6787 25.3899 95.8952 25.7646C96.1201 26.1311 96.4116 26.4184 96.7697 26.6266C97.1278 26.8349 97.5651 26.939 98.0814 26.939C98.5812 26.939 99.0101 26.8349 99.3682 26.6266C99.7263 26.4184 100.014 26.1311 100.23 25.7646C100.447 25.3899 100.605 24.9568 100.705 24.4654C100.813 23.974 100.867 23.4451 100.867 22.8788V22.6164C100.867 22.0668 100.813 21.5504 100.705 21.0673C100.605 20.576 100.443 20.1429 100.218 19.7681C100.001 19.385 99.7138 19.0851 99.3557 18.8686C98.9976 18.6521 98.5645 18.5438 98.0565 18.5438C97.5484 18.5438 97.1153 18.6521 96.7572 18.8686C96.4074 19.0851 96.1201 19.385 95.8952 19.7681C95.6787 20.1429 95.5204 20.576 95.4205 21.0673C95.3205 21.5504 95.2706 22.0668 95.2706 22.6164ZM110.287 10.2985V29.5H106.689V10.2985H110.287ZM118.807 15.9828L112.935 22.6789L109.787 25.8646L108.475 23.2661L110.974 20.0929L114.485 15.9828H118.807ZM115.072 29.5L111.074 23.2536L113.56 21.0798L119.219 29.5H115.072ZM127.664 25.7646C127.664 25.5065 127.59 25.2733 127.44 25.065C127.29 24.8568 127.011 24.6653 126.603 24.4904C126.203 24.3071 125.624 24.1406 124.866 23.9907C124.183 23.8407 123.546 23.6534 122.955 23.4285C122.372 23.1953 121.864 22.9163 121.431 22.5915C121.006 22.2666 120.673 21.8835 120.431 21.4421C120.19 20.9924 120.069 20.4802 120.069 19.9055C120.069 19.3392 120.19 18.8061 120.431 18.3064C120.681 17.8067 121.035 17.3653 121.493 16.9822C121.959 16.5907 122.526 16.2867 123.192 16.0702C123.867 15.8453 124.625 15.7329 125.466 15.7329C126.64 15.7329 127.648 15.9203 128.489 16.2951C129.339 16.6699 129.988 17.1862 130.438 17.8442C130.896 18.4938 131.125 19.2351 131.125 20.0679H127.527C127.527 19.7181 127.452 19.4058 127.302 19.1309C127.161 18.8478 126.936 18.6271 126.628 18.4688C126.328 18.3023 125.936 18.219 125.453 18.219C125.053 18.219 124.708 18.2898 124.416 18.4313C124.125 18.5646 123.9 18.7478 123.742 18.981C123.592 19.2059 123.517 19.4558 123.517 19.7306C123.517 19.9388 123.559 20.1262 123.642 20.2928C123.733 20.451 123.879 20.5968 124.079 20.73C124.279 20.8633 124.537 20.9882 124.854 21.1048C125.178 21.2131 125.578 21.313 126.053 21.4046C127.027 21.6045 127.898 21.8669 128.664 22.1917C129.43 22.5082 130.038 22.9413 130.488 23.4909C130.938 24.0323 131.162 24.7444 131.162 25.6272C131.162 26.2269 131.029 26.7766 130.763 27.2763C130.496 27.776 130.113 28.2132 129.613 28.588C129.114 28.9545 128.514 29.2418 127.814 29.45C127.123 29.6499 126.344 29.7499 125.478 29.7499C124.221 29.7499 123.155 29.525 122.28 29.0752C121.414 28.6255 120.756 28.055 120.306 27.3637C119.865 26.6641 119.644 25.9479 119.644 25.215H123.055C123.071 25.7063 123.196 26.1019 123.429 26.4018C123.671 26.7016 123.975 26.9181 124.341 27.0514C124.716 27.1847 125.12 27.2513 125.553 27.2513C126.02 27.2513 126.407 27.1888 126.715 27.0639C127.023 26.9306 127.256 26.7557 127.415 26.5392C127.581 26.3143 127.664 26.0561 127.664 25.7646ZM142.731 19.7681L146.229 17.5069C146.745 17.1654 147.091 16.8364 147.266 16.5199C147.441 16.2035 147.528 15.8495 147.528 15.4581C147.528 15.0666 147.382 14.7043 147.091 14.3712C146.799 14.0297 146.391 13.859 145.867 13.859C145.492 13.859 145.175 13.9464 144.917 14.1213C144.659 14.2879 144.463 14.5128 144.33 14.7959C144.205 15.0791 144.143 15.3956 144.143 15.7454C144.143 16.1202 144.242 16.5033 144.442 16.8947C144.642 17.2778 144.913 17.6859 145.254 18.119C145.596 18.5438 145.975 19.006 146.391 19.5057L154.974 29.5H150.889L143.893 21.4046C143.301 20.6717 142.785 20.0013 142.344 19.3933C141.902 18.777 141.557 18.1773 141.307 17.5943C141.057 17.0113 140.932 16.4117 140.932 15.7954C140.932 14.8459 141.136 14.0172 141.544 13.3093C141.952 12.593 142.527 12.0392 143.268 11.6477C144.009 11.248 144.88 11.0481 145.879 11.0481C146.82 11.0481 147.636 11.2438 148.328 11.6352C149.019 12.0184 149.552 12.5264 149.927 13.1594C150.31 13.7923 150.501 14.4878 150.501 15.2457C150.501 15.812 150.397 16.3367 150.189 16.8198C149.981 17.2945 149.694 17.7359 149.327 18.144C148.961 18.5438 148.54 18.9144 148.065 19.2559L144.08 22.0917C143.772 22.3749 143.539 22.6539 143.38 22.9288C143.222 23.2036 143.114 23.466 143.056 23.7158C142.997 23.9573 142.968 24.1905 142.968 24.4154C142.968 24.8985 143.072 25.3316 143.281 25.7147C143.489 26.0978 143.78 26.3976 144.155 26.6142C144.53 26.8307 144.967 26.939 145.467 26.939C146.15 26.939 146.812 26.7891 147.453 26.4892C148.094 26.1894 148.669 25.7605 149.177 25.2025C149.685 24.6361 150.089 23.9657 150.389 23.1911C150.689 22.4166 150.839 21.5629 150.839 20.6301H153.887C153.887 21.5629 153.795 22.4499 153.612 23.2911C153.429 24.1239 153.133 24.8985 152.725 25.6147C152.317 26.3227 151.776 26.9515 151.101 27.5011C151.051 27.5428 150.98 27.6053 150.889 27.6885C150.805 27.7635 150.735 27.8218 150.676 27.8634C149.877 28.5047 149.044 28.9836 148.178 29.3001C147.312 29.6083 146.345 29.7623 145.279 29.7623C144.063 29.7623 143.01 29.5416 142.119 29.1002C141.236 28.6588 140.553 28.0508 140.07 27.2763C139.595 26.5017 139.358 25.6147 139.358 24.6153C139.358 23.8824 139.499 23.2453 139.783 22.7039C140.074 22.1542 140.474 21.6462 140.982 21.1798C141.49 20.7134 142.073 20.2428 142.731 19.7681ZM165.018 11.3104H168.191L172.864 24.6653L177.536 11.3104H180.709L174.138 29.5H171.589L165.018 11.3104ZM163.307 11.3104H166.467L167.042 24.328V29.5H163.307V11.3104ZM179.26 11.3104H182.433V29.5H178.685V24.328L179.26 11.3104ZM184.919 22.8788V22.6164C184.919 21.6253 185.061 20.7134 185.344 19.8805C185.627 19.0393 186.039 18.3106 186.581 17.6943C187.122 17.078 187.788 16.5991 188.58 16.2576C189.371 15.9078 190.279 15.7329 191.303 15.7329C192.327 15.7329 193.239 15.9078 194.039 16.2576C194.838 16.5991 195.509 17.078 196.05 17.6943C196.6 18.3106 197.016 19.0393 197.3 19.8805C197.583 20.7134 197.724 21.6253 197.724 22.6164V22.8788C197.724 23.8616 197.583 24.7735 197.3 25.6147C197.016 26.4476 196.6 27.1763 196.05 27.801C195.509 28.4173 194.843 28.8962 194.051 29.2377C193.26 29.5791 192.352 29.7499 191.328 29.7499C190.304 29.7499 189.392 29.5791 188.592 29.2377C187.801 28.8962 187.13 28.4173 186.581 27.801C186.039 27.1763 185.627 26.4476 185.344 25.6147C185.061 24.7735 184.919 23.8616 184.919 22.8788ZM188.517 22.6164V22.8788C188.517 23.4451 188.567 23.974 188.667 24.4654C188.767 24.9568 188.925 25.3899 189.142 25.7646C189.367 26.1311 189.658 26.4184 190.016 26.6266C190.374 26.8349 190.812 26.939 191.328 26.939C191.828 26.939 192.257 26.8349 192.615 26.6266C192.973 26.4184 193.26 26.1311 193.477 25.7646C193.693 25.3899 193.852 24.9568 193.951 24.4654C194.06 23.974 194.114 23.4451 194.114 22.8788V22.6164C194.114 22.0668 194.06 21.5504 193.951 21.0673C193.852 20.576 193.689 20.1429 193.464 19.7681C193.248 19.385 192.96 19.0851 192.602 18.8686C192.244 18.6521 191.811 18.5438 191.303 18.5438C190.795 18.5438 190.362 18.6521 190.004 18.8686C189.654 19.0851 189.367 19.385 189.142 19.7681C188.925 20.1429 188.767 20.576 188.667 21.0673C188.567 21.5504 188.517 22.0668 188.517 22.6164ZM204.333 26.8765L207.331 15.9828H211.092L206.532 29.5H204.258L204.333 26.8765ZM202.272 15.9828L205.282 26.889L205.345 29.5H203.059L198.499 15.9828H202.272ZM216.501 15.9828V29.5H212.891V15.9828H216.501ZM212.666 12.4598C212.666 11.9351 212.849 11.502 213.215 11.1605C213.582 10.819 214.073 10.6483 214.69 10.6483C215.298 10.6483 215.785 10.819 216.151 11.1605C216.526 11.502 216.713 11.9351 216.713 12.4598C216.713 12.9845 216.526 13.4176 216.151 13.759C215.785 14.1005 215.298 14.2712 214.69 14.2712C214.073 14.2712 213.582 14.1005 213.215 13.759C212.849 13.4176 212.666 12.9845 212.666 12.4598ZM225.696 29.7499C224.646 29.7499 223.705 29.5833 222.872 29.2501C222.04 28.9087 221.332 28.4381 220.749 27.8385C220.174 27.2388 219.733 26.5434 219.424 25.7521C219.116 24.9526 218.962 24.1031 218.962 23.2036V22.7039C218.962 21.6795 219.108 20.7425 219.399 19.893C219.691 19.0435 220.107 18.3064 220.649 17.6818C221.198 17.0571 221.865 16.5782 222.647 16.2451C223.43 15.9036 224.313 15.7329 225.296 15.7329C226.254 15.7329 227.103 15.8911 227.845 16.2076C228.586 16.5241 229.206 16.9739 229.706 17.5569C230.214 18.1398 230.597 18.8394 230.855 19.6556C231.113 20.4635 231.243 21.363 231.243 22.3541V23.8532H220.499V21.4546H227.707V21.1798C227.707 20.6801 227.615 20.2345 227.432 19.843C227.257 19.4433 226.991 19.1268 226.633 18.8936C226.275 18.6604 225.817 18.5438 225.258 18.5438C224.784 18.5438 224.376 18.6479 224.034 18.8561C223.693 19.0643 223.414 19.3558 223.197 19.7306C222.989 20.1054 222.831 20.5468 222.722 21.0548C222.623 21.5546 222.573 22.1042 222.573 22.7039V23.2036C222.573 23.745 222.647 24.2447 222.797 24.7028C222.956 25.1608 223.176 25.5564 223.46 25.8896C223.751 26.2227 224.101 26.4809 224.509 26.6641C224.925 26.8474 225.396 26.939 225.921 26.939C226.57 26.939 227.174 26.814 227.732 26.5642C228.298 26.306 228.786 25.9187 229.194 25.4024L230.943 27.3013C230.66 27.7094 230.272 28.1008 229.781 28.4756C229.298 28.8504 228.715 29.1585 228.032 29.4001C227.349 29.6333 226.57 29.7499 225.696 29.7499ZM240.6 25.7646C240.6 25.5065 240.525 25.2733 240.375 25.065C240.225 24.8568 239.946 24.6653 239.538 24.4904C239.138 24.3071 238.559 24.1406 237.801 23.9907C237.118 23.8407 236.481 23.6534 235.89 23.4285C235.307 23.1953 234.799 22.9163 234.366 22.5915C233.941 22.2666 233.608 21.8835 233.366 21.4421C233.125 20.9924 233.004 20.4802 233.004 19.9055C233.004 19.3392 233.125 18.8061 233.366 18.3064C233.616 17.8067 233.97 17.3653 234.428 16.9822C234.895 16.5907 235.461 16.2867 236.127 16.0702C236.802 15.8453 237.56 15.7329 238.401 15.7329C239.575 15.7329 240.583 15.9203 241.424 16.2951C242.274 16.6699 242.923 17.1862 243.373 17.8442C243.831 18.4938 244.06 19.2351 244.06 20.0679H240.462C240.462 19.7181 240.387 19.4058 240.237 19.1309C240.096 18.8478 239.871 18.6271 239.563 18.4688C239.263 18.3023 238.872 18.219 238.388 18.219C237.989 18.219 237.643 18.2898 237.352 18.4313C237.06 18.5646 236.835 18.7478 236.677 18.981C236.527 19.2059 236.452 19.4558 236.452 19.7306C236.452 19.9388 236.494 20.1262 236.577 20.2928C236.669 20.451 236.814 20.5968 237.014 20.73C237.214 20.8633 237.472 20.9882 237.789 21.1048C238.114 21.2131 238.513 21.313 238.988 21.4046C239.963 21.6045 240.833 21.8669 241.599 22.1917C242.365 22.5082 242.973 22.9413 243.423 23.4909C243.873 24.0323 244.098 24.7444 244.098 25.6272C244.098 26.2269 243.964 26.7766 243.698 27.2763C243.431 27.776 243.048 28.2132 242.549 28.588C242.049 28.9545 241.449 29.2418 240.75 29.45C240.058 29.6499 239.28 29.7499 238.413 29.7499C237.156 29.7499 236.09 29.525 235.215 29.0752C234.349 28.6255 233.691 28.055 233.241 27.3637C232.8 26.6641 232.579 25.9479 232.579 25.215H235.99C236.007 25.7063 236.131 26.1019 236.365 26.4018C236.606 26.7016 236.91 26.9181 237.277 27.0514C237.651 27.1847 238.055 27.2513 238.488 27.2513C238.955 27.2513 239.342 27.1888 239.65 27.0639C239.958 26.9306 240.192 26.7557 240.35 26.5392C240.516 26.3143 240.6 26.0561 240.6 25.7646Z" fill="#E1E1E6"/>
</g>
<defs>
<filter id="filter0_d_42078_437" x="0" y="0.5" width="249.066" height="49" filterUnits="userSpaceOnUse" color-interpolation-filters="sRGB">
<feFlood flood-opacity="0" result="BackgroundImageFix"/>
<feColorMatrix in="SourceAlpha" type="matrix" values="0 0 0 0 0 0 0 0 0 0 0 0 0 0 0 0 0 0 127 0" result="hardAlpha"/>
<feOffset dy="4"/>
<feGaussianBlur stdDeviation="2"/>
<feComposite in2="hardAlpha" operator="out"/>
<feColorMatrix type="matrix" values="0 0 0 0 0 0 0 0 0 0 0 0 0 0 0 0 0 0 0.25 0"/>
<feBlend mode="normal" in2="BackgroundImageFix" result="effect1_dropShadow_42078_437"/>
<feBlend mode="normal" in="SourceGraphic" in2="effect1_dropShadow_42078_437" result="shape"/>
</filter>
</defs>
</svg>
